<?xml version="1.0" standalone="no"?>
<!DOCTYPE svg PUBLIC "-//W3C//DTD SVG 20010904//EN"
 "http://www.w3.org/TR/2001/REC-SVG-20010904/DTD/svg10.dtd">
<svg version="1.0" xmlns="http://www.w3.org/2000/svg"
 width="260.000000pt" height="260.000000pt" viewBox="0 0 260.000000 260.000000"
 preserveAspectRatio="xMidYMid meet">
<metadata>
Created by potrace 1.11, written by Peter Selinger 2001-2013
</metadata>
<g transform="translate(0.000000,260.000000) scale(0.100000,-0.100000)"
fill="#000000" stroke="none">
<path d="M1349 2596 c-2 -2 -38 -7 -79 -10 -90 -8 -273 -48 -379 -83 -414
-138 -709 -416 -831 -781 -51 -153 -60 -225 -56 -452 2 -113 6 -216 9 -230 4
-14 9 -38 13 -55 26 -137 108 -316 200 -438 196 -261 487 -432 884 -519 98
-21 128 -23 440 -23 326 0 339 1 465 27 148 31 224 54 345 106 86 36 216 107
225 122 3 4 -32 41 -78 81 -45 41 -84 76 -87 79 -3 3 -17 15 -31 28 l-26 23
-64 -34 c-171 -90 -364 -147 -554 -166 -90 -8 -381 -7 -421 2 -12 3 -39 8 -60
11 -258 41 -517 192 -635 371 -66 99 -127 254 -143 360 -21 145 -26 313 -13
455 43 473 329 759 842 845 81 13 383 14 475 1 145 -21 297 -68 423 -132 37
-19 72 -34 78 -34 9 0 118 88 211 170 l40 36 -83 41 c-166 82 -340 140 -505
167 -49 8 -105 18 -124 21 -41 7 -475 17 -481 11z"/>
<path d="M920 2082 c-7 -3 -10 -272 -10 -783 l0 -779 638 0 637 0 0 78 0 77
-435 2 c-239 1 -464 3 -500 3 l-65 0 0 275 0 275 407 0 408 0 0 80 c0 69 -2
80 -17 81 -10 1 -193 2 -408 3 l-390 1 0 260 0 260 470 5 469 5 8 35 c4 19 9
49 12 67 3 18 7 38 8 44 2 9 -147 12 -610 13 -336 1 -617 0 -622 -2z"/>
</g>
</svg>
